<svg xmlns="http://www.w3.org/2000/svg" viewBox="0 0 140 155">
<!-- SVG created with Arrow, by QuiverAI (https://quiver.ai) -->
  <style type="text/css">.cls-0 {fill:#FCFCF9;}
.cls-1 {fill:#949CA0;}
.cls-2 {fill:#B3BFC1;}
.cls-3 {fill:#D0DCDD;}
.cls-4 {fill:#F7F7EE;}
.cls-5 {fill:#FFFFF3;}
.cls-6 {fill:#C2D2D3;}
.cls-7 {fill:#A9B6B7;}
.cls-8 {fill:#FFFFFF;}
.cls-9 {fill:#1690B6;}
.cls-10 {fill:#22748F;}
.cls-11 {fill:#09A0C6;}
.cls-12 {fill:#0B709F;}
.cls-13 {fill:#FEEDE1;}
.cls-14 {fill:#98A1A1;}
.cls-15 {fill:#7BB1C4;}
.cls-16 {fill:#5BA2C4;}
.cls-17 {fill:none;stroke:#010302;stroke-width:2.2677;stroke-miterlimit:10;}
.cls-18 {fill:#FCFEF8;}
.cls-19 {fill:#F8FCF9;}
.cls-20 {fill:#FFFFFC;}
.cls-21 {fill:#FFFFFB;}</style>
  <rect class="cls-0" width="137" height="155"/>
  <polygon class="cls-1" points="32.7 103.9 34.4 103 53 105.9 54.6 106 56.6 105.6 71.1 98.7 71 112.5 56.9 121.5 52.3 122.6 32.5 121.3 32 120.9"/>
  <path class="cls-2" d="m52.8 31.8 1.2 0.2 2.5 1.2 14.5 15.9v49.5l-16.1 7.3-2.9-0.1 0.8-74z"/>
  <path class="cls-4" d="m36.9 33.8-2.3 70.6 16.4 0.9 1.5 0.2 0.3-73.7-15.9 2z"/>
  <path class="cls-5" d="m36.2 47.9 0.7-13.6 15.6-2.3 0.1 11-1.6 61.7-16.4-0.3 0.1-9.9 1.5-46.6z"/>
  <path class="cls-6" d="m56.7 33.6 14.2 15.5 0.1 49.4-15.6 6.8 1.3-71.7z"/>
  <path class="cls-7" d="m52.8 31.8 3.2 1.4-0.9 72.7-3.1-0.1 0.8-74z"/>
  <path class="cls-8" d="m54.6 105.8 0.8-0.1 1-72.3h-0.5l-1.3 72.4z"/>
  <path class="cls-2" d="m35.4 48.5 4.9-0.6 0.9 0.6-0.1 33.5-1.1 1.2-5-0.2 0.4-34.5z"/>
  <path class="cls-5" d="m36 48.3 3.9-0.2 0.7 0.6-0.6 32.9-0.5 0.3h-4.4l0.9-33.6z"/>
  <path class="cls-13" d="m34.7 94.2 0.7-0.4h4.2l1.6 0.7-0.1 4-1.4 1.4h-5l-0.7-0.6 0.7-5.1z"/>
  <path class="cls-9" d="m35.4 95.3 0.5-0.8h3.4l0.4 0.6v2.6l-0.6 0.5-3.5-0.1-0.2-0.6v-2.2z"/>
  <path class="cls-10" d="m35.8 95.1 0.4-0.4 3 0.1 0.3 0.5-0.1 0.6-2.9-0.1-0.5 0.5-0.2 0.7v-1.9z"/>
  <path class="cls-11" d="m35.9 96.4 0.6-0.2h2.9l0.2 1.4-3.6-0.1-0.1-0.5v-0.6z"/>
  <path class="cls-14" d="m36.2 48.3 4-0.2 0.9 0.4v16.3l-0.8 17.7-0.7 0.5h-4.5v-0.7l4.1-0.1 0.5-0.4 0.8-32.7-0.4-0.5h-4l0.1-0.3z"/>
  <path class="cls-5" d="m37.9 39.6 2.6 0.1 0.9 0.8v2.6l-0.8 0.8h-2.5l-0.6-0.6v-3.2l0.4-0.5z"/>
  <path class="cls-9" d="m37.8 40.4 0.7-0.7 1.8 0.2 0.7 0.8v1.7l-0.7 0.8h-1.9l-0.6-0.5v-2.3z"/>
  <path class="cls-12" d="m37.8 40.8 0.5-0.8h1.4l0.8 0.2 0.1 0.8h-2.1l-0.5 0.5-0.2 1.2v-1.9z"/>
  <path class="cls-10" d="m38 41.5 0.4-0.5h2.2l0.1 1.3h-2.7v-0.8z"/>
  <path class="cls-2" d="m46.8 98.9-0.8-1.2 0.8-59.2 1.7-1.3 1.8 0.1 0.8 0.6-0.3 59.2-1 2-3-0.2z"/>
  <path class="cls-10" d="m47.6 38.7-0.3 60 1.2 0.1 0.7-0.9 1.6-60-1.9-0.2-1.3 1z"/>
  <path class="cls-11" d="m47.7 39.1-1.5 58.4 0.8 1 0.9 0.1 1.1-0.7 1.3-59.8-1.2-0.1-1.4 1.1z"/>
  <path class="cls-14" d="m32.7 105.3 20 0.8-0.4 16.5-19.7-1.4-0.6-0.3 0.7-15.6z"/>
  <path class="cls-2" d="m52.5 106 4.1-0.4-0.4 15.9-3.9 1.1 0.2-16.6z"/>
  <path class="cls-1" d="m56.9 105.6 14.1-6.9 0.1 13.8-14.6 8.5-0.1 0.1h-0.2l0.7-15.5z"/>
  <path class="cls-14" d="m32.5 104 0.2-0.1 1.7-0.9 0.2 1.4-2.1 0.2v-0.6z"/>
  <path class="cls-14" d="m32.6 105.3h0.9l-0.1 15.9-1.2-0.1-0.2-0.5 0.6-15.3z"/>
  <path class="cls-1" d="m38.3 121.4 3.7-0.3 5.3 0.2-4.9 0.3-4.1-0.2z"/>
  <path class="cls-14" d="m55.4 121.1 1.2-0.1v0.5l-1.5 0.2 0.3-0.6z"/>
  <polygon class="cls-14" points="57.8 119.4 58.5 119.4 59.7 119.4 58.1 120.4"/>
  <polygon class="cls-14" points="59.5 118.4 60.1 118.4 60.9 118.4 61.6 117.9 60.3 118.1"/>
  <path d="m102.4 43.2h-25.8c-2.8 0-5.5 2.3-5.5 5.2l-0.1 64.8c0.3 3.1 2.6 5.6 5.4 5.6h25.8c3.2 0.1 5.4-2 5.4-5.4v-65c0-3.2-2-5.2-5.2-5.2z"/>
  <path class="cls-17" d="m106.7 48"/>
  <path class="cls-16" d="m102.4 45h-25.8c-1.6 0-3.4 1.4-3.4 3v65.3c0.2 2 1.6 3.7 3.4 3.7h25.8c2.1 0 3.3-1.4 3.3-3.6v-65.1c0-2-1.3-3.3-3.3-3.3z"/>
  <path class="cls-15" d="m73.4 47.7 0.6-0.9 0.9-0.9 0.9-0.3-0.6 1.3-0.5 1.4h-1.5z"/>
  <path class="cls-15" d="m75.3 116.6-1-0.5-0.7-0.9-0.3-0.9 1.3 0.6 1.3 0.5v1.2z"/>
  <path class="cls-15" d="m105.3 45.6 0.9 0.5 0.7 0.9 0.3 1-2.6-1.2v-1.2z"/>
  <path class="cls-15" d="m105.2 116.1 0.9-0.5 0.7-0.9 0.3-0.9-1.3 0.6-1.3 0.5v1.2z"/>
  <path class="cls-15" d="m75.7 116h27.1 1.6l-0.8 0.8h-27.2l-1-0.2z"/>
  <path class="cls-15" d="m104.9 45.6-29.3-0.1 0.6-0.5h26l1.9 0.1z"/>
  <path class="cls-15" d="m105.2 47v67.8l0.7-0.9v-66.1l-0.2-0.9z"/>
  <path class="cls-16" d="m97.5 64.1-5.2-0.1v-4.9l-0.7-1.2-4.2-0.3-0.8 1.1-0.2 5.1-5 0.2-0.8 0.6v5l0.5 0.8h5.5l0.1 4.9 0.8 1h4l0.8-1v-4.9h5.3l0.8-0.8v-4.7l-0.9-0.8z"/>
  <linearGradient id="SVGID_1_" x1="89.5" x2="89.5" y1="58.72" y2="74.98" gradientUnits="userSpaceOnUse">
    <stop stop-color="#F8FCF9" offset="0"/>
    <stop stop-color="#FFFFFA" offset="1"/>
  </linearGradient>
  <path d="m96.9 64.9h-5.1v-5.2c0-0.5-0.3-0.9-0.7-0.9h-3.1c-0.4 0-0.9 0.4-0.9 0.8v5.3h-5c-0.5 0-1 0.3-1 0.8v2.8c0 0.5 0.4 0.9 0.8 0.9h5.1l0.1 4.9c0 0.5 0.3 0.8 0.7 0.8h3.2c0.4 0 0.8-0.3 0.8-0.7v-5h5c0.5 0 1-0.2 1-0.7v-2.9c0-0.5-0.4-0.9-0.9-0.9z" fill="url(#SVGID_1_)"/>
  <path class="cls-16" d="m95.7 92.9c-1.9 0-3.3 1.5-3.3 3.4s1.5 3.6 3.3 3.6 3.6-1.5 3.6-3.5-1.7-3.5-3.6-3.5z"/>
  <path class="cls-16" d="m89.4 85.9c-1.9 0-3.7 1.7-3.7 3.7s1.8 4 3.7 4 3.5-1.9 3.5-3.9-1.5-3.8-3.5-3.8z"/>
  <path class="cls-19" d="m89.4 86.9c-1.5 0-2.8 1.4-2.8 3s1.3 3.2 2.8 3.2 3.2-1.2 3.2-3.1-1.5-3.1-3.2-3.1z"/>
  <path class="cls-16" d="m83.4 92.7c-1.8 0-3.4 1.4-3.4 3.3s1.6 4.1 3.4 4.1 3.5-1.7 3.5-3.8-1.6-3.6-3.5-3.6z"/>
  <path class="cls-19" d="m83.4 93.2c-1.5 0-3.1 1.2-3.1 3s1.6 2.9 3.1 2.9 3.1-1.4 3.1-2.9-1.4-3-3.1-3z"/>
  <path class="cls-16" d="m89.5 99c-1.9 0-3.3 1.6-3.3 3.4s1.4 3.8 3.3 3.8 3.7-1.5 3.7-3.5-1.8-3.7-3.7-3.7z"/>
  <path class="cls-19" d="m89.5 99.3c-1.5 0-2.9 1.4-2.9 3.2s1.4 3.4 2.9 3.4 3.1-1.1 3.1-3.3-1.5-3.3-3.1-3.3z"/>
  <path class="cls-20" d="m95.8 93.2c-1.5 0-3.1 1.3-3.1 3.1s1.6 2.9 3.1 2.9 2.9-1.4 2.9-2.9-1.2-3.1-2.9-3.1z"/>
  <path class="cls-21" d="m86.5 96.3"/>
</svg>