<svg xmlns="http://www.w3.org/2000/svg" width="250" height="250" viewBox="0 0 250 250" fill="none">
<rect width="250" height="250" fill="#FEFFFE"/>
<path d="M 127.46,181.92 L 86.87,200.92 L 89.81,239.91 L 127.46,215.77 V 181.92 Z" fill="#869193"/>
<path d="M 28.29,197.48 L 30.06,195.27 L 33.15,194.03 L 87.19,199.91 L 89.73,200.82 L 89.56,239.91 L 78.76,242.5 L 27.41,238.81 L 27,237.72 L 28.29,197.48 Z" fill="#758182"/>
<path d="M 28.79,198.16 L 80.05,200.9 L 78.76,242.5 L 27.41,238.81 L 28.79,198.16 Z" fill="#869193"/>
<path d="M 90.22,10.84 L 127.46,54.65 V 181.92 L 86.75,200.92 L 85.14,199.19 L 87.42,10.03 L 90.22,10.84 Z" fill="#C8D6D9"/>
<path d="M 39.61,12.18 L 81.14,6.5 L 89.25,9.62 L 86.26,200.19 L 32.91,197.46 L 39.61,12.18 Z" fill="#F9FEF5"/>
<path d="M 81.14,6.5 L 88.81,9.79 L 85.82,200.19 L 80.05,199.91 L 81.14,6.5 Z" fill="#C8D6D9"/>
<path d="M 89.87,11.12 L 90.84,11.77 L 86.61,199.63 L 85.28,200.19 L 89.87,11.12 Z" fill="#E4EBED"/>
<path d="M 44.78,28.71 L 48.39,28.6 C 50.33,28.53 50.62,30.14 50.62,31.26 V 35.13 C 50.62,37.21 49.61,38.33 47.91,38.33 H 45.04 C 42.91,38.33 42.49,36.82 42.49,35.06 V 31.81 C 42.49,30.05 43.28,28.78 44.78,28.71 Z" fill="#1B92B2"/>
<path d="M 37.52,52.11 L 47.78,51.43 C 50.12,51.27 50.62,52.93 50.56,54.6 L 47.84,137.47 C 47.78,139.61 46.78,140.08 45.06,140.08 L 34.91,140.21 L 35.04,139.61 L 44.82,139.39 C 46.61,139.35 47.33,138.46 47.41,136.66 L 49.98,54.91 C 50.06,53.06 49.12,52.01 47.39,52.11 L 37.52,52.61 V 52.11 Z" fill="#A9B8BC"/>
<path d="M 37.21,173.68 L 36.96,178.31 C 36.88,179.72 37.74,180.41 38.64,180.41 H 45.99 C 47.41,180.41 47.78,179.29 47.78,177.92 V 174.01 C 47.78,172.71 47.21,171.91 45.85,171.91 H 38.81 C 37.68,171.91 37.27,172.68 37.21,173.68 Z" fill="#1B92B2"/>
<path d="M 66.11,27.12 L 61.74,177.81 C 61.62,181.66 63.61,183.29 65.91,183.29 H 66.71 C 69.61,183.29 70.71,180.94 70.77,178.14 L 74.84,24.42 C 74.92,21.97 74.18,21.4 72.81,21.4 H 70.65 C 67.97,21.4 66.21,23.48 66.11,27.12 Z" fill="#13617D"/>
<path d="M 67.12,27.29 L 62.83,177.65 C 62.69,182.09 64.38,182.81 66.11,182.81 H 66.71 C 68.93,182.81 69.89,180.69 69.99,177.61 L 74.51,25.12 C 74.61,22.36 73.5,21.4 72.06,21.4 H 71.16 C 68.93,21.4 67.24,23.48 67.12,27.29 Z" fill="#1B92B2"/>
<path d="M 142.41,37.53 H 207.78 C 216.61,37.53 221.61,45.77 221.61,52.35 V 218.06 C 221.61,226.18 214.71,232.35 207.68,232.35 H 142.88 C 133.78,232.35 127.72,225.38 127.72,217.41 V 52.61 C 127.72,43.57 134.63,37.53 142.41,37.53 Z" fill="black"/>
<path d="M 143.45,43.61 H 207.21 C 213.41,43.61 215.29,50.41 215.29,53.33 V 217.01 C 215.29,223.81 210.08,226.28 206.71,226.28 H 143.78 C 137.11,226.28 133.51,222.26 133.51,216.31 V 53.2 C 133.51,47.72 137.09,43.61 143.45,43.61 Z" fill="#51A6CA"/>
<path d="M 170.11,78.76 V 92.32 H 155.37 C 153.99,92.32 153.31,93.28 153.31,94.44 V 102.56 C 153.31,103.62 154.11,104.45 155.47,104.45 H 169.39 V 118.22 C 169.39,119.34 170.11,119.91 171.11,119.91 H 179.56 C 180.56,119.91 181.01,119.19 181.01,118.13 V 104.45 H 194.45 C 195.72,104.45 196.34,103.45 196.34,102.39 V 94.44 C 196.34,93.28 195.54,92.32 194.31,92.32 H 181.01 V 78.76 C 181.01,77.7 180.21,76.87 179.11,76.87 H 171.49 C 170.59,76.87 170.11,77.7 170.11,78.76 Z" fill="#F9FFF0"/>
<path d="M 175.32,151.26 H 175.42 C 181.13,151.26 183.41,156.31 183.41,160.04 C 183.41,165.09 178.91,168.01 175.32,168.01 C 170.09,168.01 167.43,163.74 167.43,160.04 C 167.43,155.71 170.47,151.26 175.32,151.26 Z" fill="#F9FFF0"/>
<path d="M 159.28,168.61 H 159.38 C 165.09,168.61 167.37,173.66 167.37,175.98 C 167.37,181.72 162.31,183.98 159.28,183.98 C 154.6,183.98 150.89,180.11 150.89,176.41 C 150.89,171.71 154.42,168.61 159.28,168.61 Z" fill="#F9FFF0"/>
<path d="M 191.22,168.61 H 191.32 C 197.03,168.61 198.89,174.41 198.89,176.08 C 198.89,181.46 194.39,184.08 191.22,183.98 C 186.54,183.84 183.41,179.72 183.41,176.02 C 183.41,171.69 187.38,168.61 191.22,168.61 Z" fill="#F9FFF0"/>
<path d="M 174.81,184.66 H 174.91 C 180.62,184.66 183.11,189.91 183.11,192.7 C 183.11,198.44 178.41,200.42 175.38,200.42 C 170.15,200.42 167.43,195.91 167.43,192.99 C 167.43,188.66 170.41,184.66 174.81,184.66 Z" fill="#F9FFF0"/>
</svg>